HIERARCHY
ROOT Hips
{
	OFFSET 47.359699 -10.730617 100.569000
	CHANNELS 6 Xposition Yposition Zposition Xrotation Yrotation Zrotation
	JOINT spine
	{
		OFFSET 0.000000 -0.507026 8.817047
		CHANNELS 3 Xrotation Yrotation Zrotation
		JOINT spine1
		{
			OFFSET 0.000000 -0.000002 10.776596
			CHANNELS 3 Xrotation Yrotation Zrotation
			JOINT spine2
			{
				OFFSET 0.000000 -0.000001 10.325897
				CHANNELS 3 Xrotation Yrotation Zrotation
				JOINT Neck
				{
					OFFSET 0.000000 -1.263955 26.511002
					CHANNELS 3 Xrotation Yrotation Zrotation
					JOINT Head
					{
						OFFSET 0.000000 -0.000001 8.009659
						CHANNELS 3 Xrotation Yrotation Zrotation
						End Site
						{
							OFFSET 0.000000 6.393857 19.387894
						}
					}
				}
				JOINT RightShoulder
				{
					OFFSET -4.347950 0.605420 11.151199
					CHANNELS 3 Xrotation Yrotation Zrotation
					JOINT RightArm
					{
						OFFSET 0.000000 -0.000003 14.625793
						CHANNELS 3 Xrotation Yrotation Zrotation
						JOINT RightArmRoll
						{
							OFFSET 0.000000 -0.000001 7.383392
							CHANNELS 3 Xrotation Yrotation Zrotation
							JOINT RightForeArm
							{
								OFFSET 0.000000 -0.000004 21.505203
								CHANNELS 3 Xrotation Yrotation Zrotation
								JOINT RightForeArmRoll
								{
									OFFSET 0.000000 -0.000001 8.285324
									CHANNELS 3 Xrotation Yrotation Zrotation
									JOINT RightHand
									{
										OFFSET 0.000000 -0.000003 16.626801
										CHANNELS 3 Xrotation Yrotation Zrotation
										End Site
										{
											OFFSET 0.000000 0.000000 0.100006
										}
									}
								}
							}
						}
					}
				}
				JOINT LeftShoulder
				{
					OFFSET 4.347950 0.605420 11.151199
					CHANNELS 3 Xrotation Yrotation Zrotation
					JOINT LeftArm
					{
						OFFSET 0.000000 -0.000003 14.625793
						CHANNELS 3 Xrotation Yrotation Zrotation
						JOINT LeftArmRoll
						{
							OFFSET 0.000000 -0.000001 7.383392
							CHANNELS 3 Xrotation Yrotation Zrotation
							JOINT LeftForeArm
							{
								OFFSET 0.000000 -0.000004 21.505203
								CHANNELS 3 Xrotation Yrotation Zrotation
								JOINT LeftForeArmRoll
								{
									OFFSET 0.000000 -0.000001 8.285324
									CHANNELS 3 Xrotation Yrotation Zrotation
									JOINT LeftHand
									{
										OFFSET 0.000000 -0.000003 16.626801
										CHANNELS 3 Xrotation Yrotation Zrotation
										End Site
										{
											OFFSET 0.000000 0.000000 0.100006
										}
									}
								}
							}
						}
					}
				}
			}
		}
	}
	JOINT RightUpLeg
	{
		OFFSET -7.815102 1.202170 -1.433090
		CHANNELS 3 Xrotation Yrotation Zrotation
		JOINT RightUpLegRoll
		{
			OFFSET 0.000000 -0.000003 19.495895
			CHANNELS 3 Xrotation Yrotation Zrotation
			JOINT RightLeg
			{
				OFFSET 0.000000 0.000004 -24.142700
				CHANNELS 3 Xrotation Yrotation Zrotation
				JOINT RightLegRoll
				{
					OFFSET 0.000000 -0.000004 24.221703
					CHANNELS 3 Xrotation Yrotation Zrotation
					JOINT RightFoot
					{
						OFFSET 0.000000 -0.000004 20.160500
						CHANNELS 3 Xrotation Yrotation Zrotation
						JOINT RightToeBase
						{
							OFFSET 0.000000 -0.000003 16.853195
							CHANNELS 3 Xrotation Yrotation Zrotation
							End Site
							{
								OFFSET 0.007145 0.940780 8.161865
							}
						}
					}
				}
			}
		}
	}
	JOINT LeftUpLeg
	{
		OFFSET 7.815102 1.202170 -1.433090
		CHANNELS 3 Xrotation Yrotation Zrotation
		JOINT LeftUpLegRoll
		{
			OFFSET 0.000000 -0.000003 19.496002
			CHANNELS 3 Xrotation Yrotation Zrotation
			JOINT LeftLeg
			{
				OFFSET 0.000000 -0.000004 24.142593
				CHANNELS 3 Xrotation Yrotation Zrotation
				JOINT LeftLegRoll
				{
					OFFSET 0.000000 -0.000005 24.445602
					CHANNELS 3 Xrotation Yrotation Zrotation
					JOINT LeftFoot
					{
						OFFSET 0.000000 -0.000003 19.936600
						CHANNELS 3 Xrotation Yrotation Zrotation
						JOINT LeftToeBase
						{
							OFFSET 0.000000 -0.000003 16.853195
							CHANNELS 3 Xrotation Yrotation Zrotation
							End Site
							{
								OFFSET -0.032013 0.940779 8.161865
							}
						}
					}
				}
			}
		}
	}
}
MOTION
Frames: 11
Frame Time: 0.041667
44.423500 -6.612575 100.110992 1.481099 0.344789 17.619684 -0.906026 -0.009716 0.494334 2.190890 -0.022390 0.988555 3.835870 -0.010547 0.988749 6.354303 31.003287 -6.602404 6.563423 -23.078226 -5.204808 1.164534 -23.262911 7.292142 278.724092 -158.695498 275.030872 0.000002 0.000001 0.000013 46.981217 -8.617097 2.258170 0.000005 0.000001 -2.999992 -5.000222 -7.998884 0.000164 -30.986096 62.778215 36.315552 268.342095 132.023909 -216.742721 0.000000 0.000003 0.000001 102.334928 -12.034115 21.583145 -0.000009 -0.000004 3.001559 -5.000177 7.998933 -0.000168 -8.193930 -181.562903 -2.148810 -179.999991 0.000005 -1.017993 169.024055 -2.068492 -0.670061 -0.000002 0.000001 0.254840 70.261015 7.581868 0.193366 25.456964 -7.355618 0.000010 -13.078202 174.391354 2.513661 -0.000004 -0.000005 -0.929480 -13.887075 1.487590 0.696632 -0.000004 0.000003 -0.185581 69.337089 -6.859860 -2.186586 25.456907 7.348356 -0.000001 
44.461300 -6.632225 100.119003 1.419856 0.335636 17.426978 -0.918417 -0.017808 0.483004 2.166171 -0.038605 0.965846 3.811163 -0.027034 0.966240 6.319215 30.718434 -6.466436 6.534457 -22.804275 -5.106368 1.179804 -23.537554 7.252873 279.030276 -158.512749 274.761052 0.000002 0.000002 0.000013 47.679724 -8.623122 2.312315 0.000001 0.000000 -2.999992 -5.000223 -7.998886 0.000167 -30.836863 62.676541 36.151262 268.363323 132.249825 -217.040531 -0.000000 0.000006 -0.000001 102.239449 -11.928037 21.395480 -0.000009 -0.000004 3.001539 -5.000182 7.998933 -0.000167 -8.081709 -181.557397 -2.140937 -179.999991 0.000005 -1.016997 169.104706 -2.069055 -0.667145 -0.000002 0.000002 0.250230 70.209400 7.571021 0.228588 25.456959 -7.355620 0.000010 -12.954638 174.371028 2.476005 -0.000005 -0.000005 -0.931534 -13.899589 1.504284 0.699063 -0.000004 0.000003 -0.186299 69.351234 -6.859171 -2.187983 25.456907 7.348339 0.000008 
44.509197 -6.653924 100.122002 1.359800 0.326620 17.231847 -0.931014 -0.025726 0.471615 2.141031 -0.054471 0.943021 3.786022 -0.043172 0.943604 6.285252 30.429326 -6.330374 6.505676 -22.527806 -5.007255 1.195825 -23.817595 7.213825 279.333591 -158.325397 274.484484 0.000001 0.000001 0.000013 48.379265 -8.622070 2.364428 -0.000000 -0.000001 -2.999990 -5.000220 -7.998884 0.000170 -30.686889 62.572825 35.986061 268.384033 132.477762 -217.340226 -0.000000 0.000003 0.000002 102.138130 -11.820297 21.204191 -0.000008 -0.000001 3.001532 -5.000182 7.998933 -0.000169 -7.971340 -181.550895 -2.133157 -179.999991 0.000005 -1.015999 169.184756 -2.069608 -0.664254 -0.000002 0.000001 0.245630 70.157804 7.560156 0.263898 25.456962 -7.355622 0.000012 -12.831344 174.351698 2.438396 -0.000004 -0.000005 -0.933550 -13.911003 1.521324 0.701517 -0.000004 0.000002 -0.186955 69.364895 -6.858250 -2.190072 25.456912 7.348323 0.000006 
44.557098 -6.679246 100.129990 1.301452 0.317474 17.034085 -0.943894 -0.033396 0.460222 2.115332 -0.069838 0.920184 3.760323 -0.058811 0.920951 6.252788 30.136243 -6.194328 6.476700 -22.248844 -4.907534 1.212343 -24.102720 7.174711 279.634502 -158.133851 274.201714 0.000002 0.000002 0.000010 49.079202 -8.613534 2.414376 0.000002 0.000001 -2.999992 -5.000221 -7.998885 0.000167 -30.535532 62.466663 35.819226 268.403867 132.706710 -217.641983 -0.000002 0.000007 0.000000 102.030063 -11.711150 21.007254 -0.000007 -0.000004 3.001510 -5.000182 7.998934 -0.000168 -7.863894 -181.543382 -2.125236 -179.999991 0.000005 -1.014006 169.263508 -2.069170 -0.661229 -0.000001 0.000002 0.241050 70.106455 7.549201 0.299265 25.456960 -7.355624 0.000012 -12.708626 174.333352 2.401131 -0.000004 -0.000005 -0.935526 -13.921223 1.538855 0.703986 -0.000004 0.000002 -0.187555 69.377995 -6.857265 -2.192380 25.456909 7.348304 0.000005 
44.601997 -6.701198 100.137001 1.245346 0.307929 16.833203 -0.957120 -0.040743 0.448880 2.088922 -0.084555 0.897444 3.733924 -0.073800 0.898392 6.222144 29.839177 -6.058356 6.447169 -21.967306 -4.807280 1.229085 -24.392545 7.135242 279.933117 -157.938330 273.912224 0.000001 0.000000 0.000011 49.778999 -8.597183 2.462052 0.000003 -0.000000 -2.999991 -5.000217 -7.998886 0.000168 -30.382666 62.358104 35.650579 268.422883 132.935794 -217.946555 -0.000002 0.000006 0.000002 101.914851 -11.600075 20.804613 -0.000009 -0.000005 3.001500 -5.000181 7.998933 -0.000169 -7.760378 -181.533847 -2.117068 -179.999991 0.000005 -1.012994 169.340279 -2.067719 -0.658085 -0.000002 0.000001 0.236486 70.055235 7.538229 0.334612 25.456964 -7.355621 0.000011 -12.586861 174.316987 2.364298 -0.000004 -0.000005 -0.937470 -13.929948 1.557015 0.706457 -0.000005 0.000002 -0.188104 69.390760 -6.856185 -2.194795 25.456906 7.348286 0.000005 
44.640202 -6.729266 100.142990 1.192034 0.297706 16.629004 -0.970773 -0.047691 0.437645 2.061663 -0.098475 0.874921 3.706663 -0.087988 0.876038 6.193669 29.538413 -5.922545 6.416732 -21.683197 -4.706531 1.245784 -24.686763 7.095135 280.229575 -157.739080 273.615466 0.000002 0.000003 0.000014 50.478096 -8.572605 2.507316 0.000004 -0.000002 -2.999991 -5.000219 -7.998884 0.000168 -30.227572 62.246874 35.479346 268.441188 133.163977 -218.254720 0.000002 0.000006 0.000000 101.791812 -11.487106 20.598210 -0.000009 -0.000001 3.001484 -5.000184 7.998934 -0.000171 -7.661851 -181.522304 -2.108424 -179.999991 0.000005 -1.011996 169.414045 -2.066258 -0.655058 -0.000001 0.000001 0.231955 70.004323 7.527101 0.370098 25.456964 -7.355619 0.000012 -12.466254 174.302630 2.328210 -0.000004 -0.000005 -0.939381 -13.936777 1.575936 0.708916 -0.000005 0.000003 -0.188616 69.402905 -6.855188 -2.197160 25.456907 7.348266 0.000004 
44.682701 -6.749702 100.152992 1.142045 0.286519 16.421081 -0.984919 -0.054163 0.426574 2.033413 -0.111445 0.852716 3.678426 -0.101224 0.853984 6.167683 29.234043 -5.786944 6.385011 -21.396720 -4.605331 1.262172 -24.984982 7.054079 280.524421 -157.536483 273.312123 0.000003 0.000001 0.000012 51.175729 -8.539447 2.549942 0.000002 0.000001 -2.999993 -5.000219 -7.998883 0.000164 -30.070249 62.132885 35.305429 268.458755 133.390289 -218.567242 0.000000 0.000007 0.000001 101.660297 -11.372189 20.384961 -0.000009 -0.000003 3.001472 -5.000181 7.998934 -0.000165 -7.569358 -181.507769 -2.099180 -179.999991 0.000005 -1.011002 169.484300 -2.064768 -0.653170 -0.000002 0.000001 0.227440 69.953623 7.515820 0.406035 25.456962 -7.355621 0.000011 -12.347067 174.292221 2.292746 -0.000004 -0.000004 -0.941268 -13.941518 1.595771 0.711351 -0.000004 0.000002 -0.189099 69.414646 -6.854232 -2.199259 25.456907 7.348248 0.000002 
44.731895 -6.818755 100.166008 1.095924 0.274076 16.209154 -0.999628 -0.060085 0.415718 2.004035 -0.123318 0.830944 3.649047 -0.113357 0.832358 6.144497 28.926036 -5.651571 6.351651 -21.107704 -4.503724 1.277970 -25.286803 7.011795 280.817326 -157.330634 273.000530 0.000001 0.000003 0.000011 51.871325 -8.497356 2.589799 0.000004 -0.000000 -2.999988 -5.000221 -7.998881 0.000162 -29.910085 62.015946 35.128199 268.475694 133.613622 -218.884750 0.000000 0.000003 0.000002 101.519902 -11.255125 20.165941 -0.000008 -0.000002 3.001452 -5.000183 7.998934 -0.000169 -7.483930 -181.490216 -2.089099 -179.999991 0.000005 -1.010002 169.550143 -2.063232 -0.651429 -0.000002 0.000001 0.222960 69.903230 7.504424 0.442020 25.456957 -7.355621 0.000010 -12.229816 174.284803 2.258447 -0.000005 -0.000004 -0.943124 -13.943964 1.616640 0.713743 -0.000004 0.000002 -0.189562 69.425813 -6.853457 -2.200827 25.456904 7.348232 0.000001 
44.775799 -6.833607 100.162994 1.054202 0.260076 15.992714 -1.014969 -0.065384 0.405133 1.973375 -0.133944 0.809714 3.618398 -0.124235 0.811259 6.124464 28.614808 -5.516513 6.316298 -20.816253 -4.401718 1.292924 -25.592017 6.967960 281.109331 -157.122163 272.682571 0.000002 -0.000000 0.000015 52.564432 -8.445906 2.626607 0.000003 -0.000002 -2.999989 -5.000223 -7.998882 0.000168 -29.746621 61.895960 34.947124 268.491922 133.833049 -219.208119 -0.000000 0.000003 0.000003 101.369672 -11.135878 19.939006 -0.000008 -0.000002 3.001441 -5.000181 7.998934 -0.000170 -7.406622 -181.469657 -2.077937 -179.999991 0.000005 -1.007994 169.610823 -2.059697 -0.649521 -0.000002 0.000002 0.218513 69.853212 7.492784 0.478625 25.456960 -7.355619 0.000010 -12.114690 174.281361 2.225412 -0.000005 -0.000004 -0.944956 -13.943820 1.638683 0.716083 -0.000004 0.000002 -0.190010 69.436536 -6.852938 -2.201670 25.456906 7.348210 -0.000001 
44.804298 -6.935006 100.180992 1.017429 0.244203 15.771662 -1.031020 -0.069981 0.394879 1.941296 -0.143171 0.789141 3.586320 -0.133709 0.790798 6.107880 28.300237 -5.381762 6.278603 -20.522470 -4.299343 1.306732 -25.900248 6.922263 281.400160 -156.911029 272.356689 0.000003 0.000002 0.000013 53.254186 -8.384783 2.660144 0.000003 -0.000002 -2.999991 -5.000220 -7.998886 0.000169 -29.579937 61.772695 34.762224 268.507632 134.047408 -219.538112 -0.000001 0.000004 -0.000000 101.209204 -11.014124 19.705156 -0.000010 -0.000004 3.001418 -5.000180 7.998934 -0.000171 -7.338457 -181.444098 -2.065724 -179.999991 0.000005 -1.006996 169.665560 -2.057113 -0.648017 -0.000002 0.000001 0.214104 69.803516 7.480987 0.515573 25.456965 -7.355621 0.000011 -12.001992 174.281907 2.193953 -0.000005 -0.000004 -0.946766 -13.940787 1.662058 0.718354 -0.000005 0.000002 -0.190452 69.446713 -6.852701 -2.201596 25.456904 7.348194 -0.000003 
44.854301 -6.955699 100.183990 0.985954 0.225956 15.545608 -1.048004 -0.073764 0.384779 1.907367 -0.150774 0.768882 3.552391 -0.141555 0.770628 6.096202 27.984446 -5.247481 6.237655 -20.228669 -4.196298 1.320325 -26.209973 6.876024 281.692192 -156.697531 272.029824 0.000002 0.000001 0.000013 53.941030 -8.317735 2.689411 0.000003 -0.000001 -2.999986 -5.000218 -7.998885 0.000164 -29.410914 61.645954 34.574687 268.521702 134.256876 -219.874868 0.000000 0.000004 0.000000 101.036195 -10.888422 19.462055 -0.000007 -0.000003 3.001411 -5.000187 7.998932 -0.000170 -7.280093 -181.413540 -2.052280 -179.999991 0.000005 -1.005004 169.713631 -2.052507 -0.647405 -0.000002 0.000001 0.209703 69.754379 7.468843 0.553111 25.456962 -7.355622 0.000011 -11.891487 174.288410 2.163952 -0.000005 -0.000004 -0.948538 -13.934563 1.686796 0.720554 -0.000005 0.000002 -0.190858 69.455893 -6.852694 -2.200928 25.456899 7.348168 0.000011 
